<?xml version="1.0" ?><svg enable-background="new 0 0 52 52" id="Layer_1" version="1.1" viewBox="0 0 52 52" xml:space="preserve" xmlns="http://www.w3.org/2000/svg" xmlns:xlink="http://www.w3.org/1999/xlink"><g><path  d="M26.0003662,46.0018311c-3.6221313,0-7.0496826-0.8444214-10.100708-2.3422852l-4.9510498,6.3388672h30.0996094   l-4.9503174-6.3372192C33.0476685,45.1580811,29.6212158,46.0018311,26.0003662,46.0018311z"/><path d="M26,44.0015869c11.5800171,0,21-9.4199829,21-21s-9.4199829-21-21-21c-11.5799561,0-21,9.4199829-21,21   S14.4200439,44.0015869,26,44.0015869z M32,10.0015869c2.2000122,0,4,1.789978,4,4c0,2.2000122-1.7999878,4-4,4   c-2.2099609,0-4-1.7999878-4-4C28,11.7915649,29.7900391,10.0015869,32,10.0015869z M25.9984131,10.9984131   c0.2667236,0,0.5321045,0.0135498,0.796936,0.0310059c-0.5030518,0.8773804-0.7949829,1.8905029-0.7949829,2.9724121   c0,3.3085938,2.6914063,6,6,6c1.9278564,0,3.6414185-0.9174805,4.7398682-2.3347168   c0.8311157,1.6132813,1.2581787,3.3948975,1.2581787,5.3312988c0,6.6166992-5.3828125,12-12,12s-12-5.3833008-12-12   S19.3812256,10.9984131,25.9984131,10.9984131z"/></g></svg>
