<svg id="ebF60LrkjMU1" xmlns="http://www.w3.org/2000/svg" xmlns:xlink="http://www.w3.org/1999/xlink" viewBox="0 0 300 300" shape-rendering="geometricPrecision" text-rendering="geometricPrecision"><path d="M-66.606661,0c0-36.040184,29.820818-65.256525,66.606661-65.256525s66.606661,29.216341,66.606661,65.256525-58.425759,158.894347-66.606661,158.894347-66.606661-122.854163-66.606661-158.894347Z" transform="matrix(1.18 0 0 1.2 150 91.314132)" fill="#ff7700" stroke-width="0"/><path d="M-66.606661,2.303985c0-37.31264,31.077084-67.56051,69.412609-67.56051s69.412609,30.24787,69.412609,67.56051-31.077084,67.56051-69.412609,67.56051-69.412609-30.24787-69.412609-67.56051Z" transform="matrix(.925675 0 0 0.957932 147.402604 89.256879)" fill="#fff" stroke-width="0"/><path d="M-66.606661,55.199533c0-8.099235,6.593532-14.664962,14.727066-14.664962s14.727064,6.565727,14.727064,14.664962-6.593531,14.664962-14.727064,14.664962-14.727066-6.565727-14.727066-14.664962Z" transform="matrix(.925675 0 0 0.957932 198.327542 38.58654)" fill="#fff" stroke-width="0"/><g transform="matrix(1.201661 0 0 0.923853-22.201556 9.707139)"><path d="M35.481792,22.992494L64.056387,0L47.008457,51.24511L0,51.24511L35.481792,22.992494Z" transform="matrix(.711874 0 0 1 113.871383 40.218829)" fill="#ff0" stroke="#f1ed07"/><path d="M35.481792,22.992494L64.056387,0L47.008457,51.24511L0,51.24511L35.481792,22.992494Z" transform="matrix(-.711864-.003797 0.005334-.999986 172.966948 136.772096)" fill="#ff0" stroke="#f1ed07"/></g><rect width="7.968839" height="10.400417" rx="0" ry="0" transform="matrix(.854697-.519127 0.519128 0.854698 140.76005 89.087754)" fill="#ff0" stroke-width="0"/><rect width="7.968839" height="10.400417" rx="0" ry="0" transform="matrix(.990459-.137806 0.137807 0.99046 147.590487 83.888641)" fill="#ff0" stroke-width="0"/></svg>
