<svg id="e19YESTyCrK1" xmlns="http://www.w3.org/2000/svg" xmlns:xlink="http://www.w3.org/1999/xlink" viewBox="0 0 300 300" shape-rendering="geometricPrecision" text-rendering="geometricPrecision"><path d="M-66.606661,0c0-36.040184,29.820818-65.256525,66.606661-65.256525s66.606661,29.216341,66.606661,65.256525-58.425759,158.894347-66.606661,158.894347-66.606661-122.854163-66.606661-158.894347Z" transform="matrix(1.18 0 0 1.2 150 91.314132)" fill="#00b6ff" stroke-width="0"/><path d="M-66.606661,2.303985c0-37.31264,31.077084-67.56051,69.412609-67.56051s69.412609,30.24787,69.412609,67.56051-31.077084,67.56051-69.412609,67.56051-69.412609-30.24787-69.412609-67.56051Z" transform="matrix(.925675 0 0 0.957932 147.402604 89.256879)" fill="#fff" stroke-width="0"/><path d="M-66.606661,2.303985c0-37.31264,31.077084-67.56051,69.412609-67.56051s69.412609,30.24787,69.412609,67.56051-31.077084,67.56051-69.412609,67.56051-69.412609-30.24787-69.412609-67.56051Z" transform="matrix(.23 0 0 0.26 108.800659 90.864903)" fill="#f00" stroke-width="0"/><path d="M-66.606661,2.303985c0-37.31264,31.077084-67.56051,69.412609-67.56051s69.412609,30.24787,69.412609,67.56051-31.077084,67.56051-69.412609,67.56051-69.412609-30.24787-69.412609-67.56051Z" transform="matrix(.23 0 0 0.26 149.354632 90.864903)" fill="#ffab00" stroke-width="0"/><path d="M-66.606661,2.303985c0-37.31264,31.077084-67.56051,69.412609-67.56051s69.412609,30.24787,69.412609,67.56051-31.077084,67.56051-69.412609,67.56051-69.412609-30.24787-69.412609-67.56051Z" transform="matrix(.23 0 0 0.26 191.140431 90.864903)" fill="#03bd32" stroke-width="0"/></svg>
