<svg id="eXjBQTJVavU1" xmlns="http://www.w3.org/2000/svg" xmlns:xlink="http://www.w3.org/1999/xlink" viewBox="0 0 300 300" shape-rendering="geometricPrecision" text-rendering="geometricPrecision"><path d="M-66.606661,0c0-36.040184,29.820818-65.256525,66.606661-65.256525s66.606661,29.216341,66.606661,65.256525-58.425759,158.894347-66.606661,158.894347-66.606661-122.854163-66.606661-158.894347Z" transform="matrix(1.18 0 0 1.2 150 91.314132)" fill="#44ff00" stroke-width="0"/><path d="M-66.606661,2.303985c0-37.31264,31.077084-67.56051,69.412609-67.56051s69.412609,30.24787,69.412609,67.56051-31.077084,67.56051-69.412609,67.56051-69.412609-30.24787-69.412609-67.56051Z" transform="matrix(.925675 0 0 0.957932 147.402604 89.256879)" fill="#fff" stroke-width="0"/><rect width="75.338886" height="59.52702" rx="11" ry="11" transform="matrix(1.083162 0 0 1 109.197891 61.700429)" fill="#404143" stroke-width="0"/><rect width="75.338886" height="59.52702" rx="11" ry="11" transform="matrix(.495875 0 0 0.358858 131.320665 55.909461)" fill="#404143" stroke-width="0"/><path d="M-66.606661,55.199533c0-8.099235,6.593532-14.664962,14.727066-14.664962s14.727064,6.565727,14.727064,14.664962-6.593531,14.664962-14.727064,14.664962-14.727066-6.565727-14.727066-14.664962Z" transform="matrix(.925675 0 0 0.957932 198.327542 38.58654)" fill="#fff" stroke-width="0"/></svg>
